# xmcd
#
# Track frame offsets:
#	150
#	16472
#	39950
#	49142
#	65826
#	83615
#	102422
#	119281
#	139451
#	157477
#	176062
#
# Disc length: 2579 seconds
#
# Revision: 0
# Processed by: cddbd v1.5.2PL0 Copyright (c) Steve Scherf et al.
# Submitted via: audiograbber 1.83.01
#
DISCID=9e0a110b
DTITLE=Boston - Life, Love and Hope
DYEAR=2013
DGENRE=Rock
TTITLE0=Heaven On Earth [Lead vocals: David Victor with Louis St. August]
TTITLE1=Didn't Mean To Fall In Love [Lead vocals: Brad Delp]
TTITLE2=Last Day Of School
TTITLE3=Sail Away [Lead vocals: Brad Delp and Kimberley Dahme]
TTITLE4=Life, Love and Hope [Lead vocals: Tommy DeCarlo]
TTITLE5=If You Where In Love [Lead vocals: Kimberley Dahme]
TTITLE6=Someday [Lead vocals: Tommy DeCarlo and Tom Scholz with Jude Nejmanowski]
TTITLE7=Love Got Away [Lead vocals: Tom Scholz]
TTITLE8=Someone (2.0) [Lead vocals: Brad Delp and Tom Scholz]
TTITLE9=You Gave Up On Love (2.0) [Lead vocals: Kimberley Dahme and Tommy DeCarlo
TTITLE9=and Tom Scholz]
TTITLE10=The Way You Look Tonight [Lead vocals: Tommy DeCarlo]
EXTD=
EXTT0=
EXTT1=
EXTT2=
EXTT3=
EXTT4=
EXTT5=
EXTT6=
EXTT7=
EXTT8=
EXTT9=
EXTT10=
PLAYORDER=
